<svg width="42" height="45" viewBox="0 0 42 45" fill="none" xmlns="http://www.w3.org/2000/svg">
<g id="Group 336567">
<g id="Group">
<g id="Group_2">
<path id="Vector" d="M41.5551 11.1973L34.3015 6.11753V1.04893C34.3015 0.568684 33.9348 0.179199 33.4826 0.179199H28.4573C28.0051 0.179199 27.6384 0.568684 27.6384 1.04893V6.1204L20.4651 11.1997C20.2373 11.361 20.1005 11.6325 20.1005 11.9233V14.5921C20.1005 15.0724 20.4671 15.4619 20.9193 15.4619H41.1043C41.5566 15.4619 41.9232 15.0724 41.9232 14.5921V11.9233C41.9232 11.6311 41.7849 11.3583 41.5551 11.1973ZM29.2761 1.91865H32.6638V5.71613H29.2761V1.91865ZM21.7382 13.7224V12.3888L28.7052 7.45549H33.2369L40.2855 12.3917V13.7224H21.7382Z" fill="white"/>
</g>
</g>
<g id="Group_3">
<g id="Group_4">
<path id="Vector_2" d="M41.1048 21.6416H0.818603C0.366373 21.6416 -0.000244141 22.0311 -0.000244141 22.5113V43.8615C-0.000244141 44.3418 0.366373 44.7313 0.818603 44.7313H41.1048C41.557 44.7313 41.9237 44.3418 41.9237 43.8615V22.5113C41.9237 22.0311 41.557 21.6416 41.1048 21.6416ZM20.101 42.9919H1.63737V33.7083H20.101V42.9919ZM20.101 31.9689H1.63737V23.3811H20.101V31.9689ZM40.286 42.9919H21.7386V29.3956H40.286V42.9919H40.286ZM21.7386 27.6562V23.3811H40.286V27.6562H21.7386Z" fill="white"/>
</g>
</g>
<g id="Group_5">
<g id="Group_6">
<path id="Vector_3" d="M15.4758 25.0273H5.89685C5.44462 25.0273 5.078 25.4168 5.078 25.8971C5.078 26.3773 5.44462 26.7668 5.89685 26.7668H15.4758C15.928 26.7668 16.2946 26.3773 16.2946 25.8971C16.2946 25.4168 15.928 25.0273 15.4758 25.0273Z" fill="white"/>
</g>
</g>
<g id="Group_7">
<g id="Group_8">
<path id="Vector_4" d="M15.4758 35.5415H5.89685C5.44462 35.5415 5.078 35.931 5.078 36.4112C5.078 36.8915 5.44462 37.281 5.89685 37.281H15.4758C15.928 37.281 16.2946 36.8915 16.2946 36.4112C16.2946 35.931 15.928 35.5415 15.4758 35.5415Z" fill="white"/>
</g>
</g>
<g id="Group_9">
<g id="Group_10">
<path id="Vector_5" d="M37.5841 31.1353H35.7796C35.3273 31.1353 34.9607 31.5247 34.9607 32.005C34.9607 32.4852 35.3273 32.8747 35.7796 32.8747H36.7653V39.8323H25.3563V32.8747H29.2289C29.6812 32.8747 30.0478 32.4852 30.0478 32.005C30.0478 31.5247 29.6812 31.1353 29.2289 31.1353H24.5375C24.0852 31.1353 23.7186 31.5247 23.7186 32.005V40.702C23.7186 41.1822 24.0852 41.5717 24.5375 41.5717H37.5841C38.0363 41.5717 38.4029 41.1822 38.4029 40.702V32.005C38.4029 31.5247 38.0363 31.1353 37.5841 31.1353Z" fill="white"/>
</g>
</g>
<g id="Group_11">
<g id="Group_12">
<path id="Vector_6" d="M26.9123 25.466C26.9016 25.4103 26.8853 25.3556 26.8648 25.3034C26.8443 25.2511 26.8197 25.2 26.7894 25.153C26.7599 25.1051 26.7255 25.0608 26.6879 25.0208C26.4979 24.819 26.2154 24.7259 25.9493 24.7833C25.8969 24.7946 25.8454 24.8112 25.7962 24.8329C25.7462 24.8547 25.6988 24.8817 25.6546 24.913C25.6095 24.9442 25.5678 24.9809 25.5301 25.0208C25.4924 25.0608 25.458 25.1051 25.4286 25.153C25.3991 25.2 25.3737 25.2512 25.3532 25.3034C25.3328 25.3556 25.3164 25.4103 25.3065 25.466C25.2959 25.5225 25.2902 25.5791 25.2902 25.6356C25.2902 25.6931 25.2959 25.7497 25.3065 25.8061C25.3164 25.8609 25.3328 25.9158 25.3532 25.9688C25.3737 26.0211 25.3991 26.0714 25.4285 26.1183C25.458 26.1663 25.4924 26.2106 25.53 26.2506C25.5677 26.2906 25.6094 26.3272 25.6545 26.3593C25.6987 26.3906 25.7462 26.4176 25.7961 26.4393C25.8453 26.4611 25.8968 26.4776 25.9493 26.4889C26.0017 26.5003 26.0557 26.5054 26.1089 26.5054C26.3251 26.5054 26.5355 26.4132 26.6878 26.2506C26.7255 26.2106 26.7599 26.1663 26.7893 26.1183C26.8196 26.0714 26.8442 26.0211 26.8647 25.9688C26.8852 25.9158 26.9016 25.8609 26.9122 25.8061C26.922 25.7497 26.9278 25.6931 26.9278 25.6357C26.9279 25.5792 26.9221 25.5225 26.9123 25.466Z" fill="white"/>
</g>
</g>
<g id="Group_13">
<g id="Group_14">
<path id="Vector_7" d="M31.8142 25.4662C31.8036 25.4105 31.788 25.3558 31.7675 25.3037C31.747 25.2514 31.7216 25.2002 31.6922 25.1532C31.6619 25.1054 31.6283 25.0611 31.5907 25.021C31.5522 24.981 31.5105 24.9444 31.4655 24.9132C31.4212 24.8819 31.3738 24.8549 31.3246 24.8332C31.2747 24.8114 31.224 24.7949 31.1715 24.7836C31.0659 24.7609 30.957 24.7609 30.8514 24.7836C30.7989 24.7949 30.7474 24.8114 30.6982 24.8332C30.6483 24.8549 30.6008 24.8819 30.5566 24.9132C30.5115 24.9445 30.4698 24.9811 30.4321 25.021C30.3945 25.0611 30.36 25.1054 30.3306 25.1532C30.3011 25.2002 30.2757 25.2515 30.2553 25.3037C30.2349 25.3559 30.2193 25.4105 30.2086 25.4662C30.198 25.5228 30.1923 25.5793 30.1923 25.6358C30.1923 25.6932 30.198 25.7498 30.2086 25.8063C30.2193 25.8611 30.2349 25.9159 30.2553 25.9689C30.2758 26.0212 30.3012 26.0716 30.3306 26.1185C30.3601 26.1664 30.3945 26.2107 30.4321 26.2508C30.4698 26.2916 30.5115 26.3273 30.5566 26.3594C30.6008 26.3908 30.6483 26.4177 30.6982 26.4395C30.7474 26.4612 30.7989 26.4778 30.8514 26.4891C30.9038 26.5004 30.9578 26.5055 31.011 26.5055C31.0643 26.5055 31.1183 26.5003 31.1715 26.4891C31.224 26.4778 31.2747 26.4612 31.3246 26.4395C31.3738 26.4177 31.4212 26.3908 31.4655 26.3594C31.5105 26.3272 31.5522 26.2916 31.5907 26.2508C31.6284 26.2107 31.662 26.1664 31.6922 26.1185C31.7217 26.0716 31.7471 26.0212 31.7675 25.9689C31.788 25.9159 31.8036 25.8611 31.8142 25.8063C31.8249 25.7498 31.8298 25.6932 31.8298 25.6358C31.8298 25.5794 31.8249 25.5228 31.8142 25.4662Z" fill="white"/>
</g>
</g>
<g id="Group_15">
<g id="Group_16">
<path id="Vector_8" d="M36.7166 25.4662C36.706 25.4105 36.6904 25.3558 36.6699 25.3037C36.6494 25.2514 36.624 25.2002 36.5946 25.1532C36.5643 25.1054 36.5307 25.0611 36.4931 25.021C36.4546 24.981 36.4129 24.9444 36.3687 24.9132C36.3236 24.8819 36.2762 24.8549 36.227 24.8332C36.1779 24.8114 36.1263 24.7949 36.0739 24.7836C35.9683 24.7609 35.8593 24.7609 35.7537 24.7836C35.7013 24.7949 35.6498 24.8114 35.6006 24.8332C35.5515 24.8549 35.504 24.8819 35.459 24.9132C35.4139 24.9445 35.3722 24.9811 35.3345 25.021C35.2968 25.0611 35.2624 25.1054 35.233 25.1532C35.2035 25.2002 35.1781 25.2515 35.1577 25.3037C35.1372 25.3559 35.1217 25.4105 35.111 25.4662C35.1004 25.5228 35.0955 25.5793 35.0955 25.6358C35.0955 25.6932 35.1004 25.7498 35.111 25.8063C35.1217 25.862 35.1372 25.9158 35.1577 25.9688C35.1782 26.0211 35.2036 26.0715 35.233 26.1184C35.2633 26.1663 35.2969 26.2106 35.3345 26.2507C35.4868 26.4133 35.6981 26.5054 35.9134 26.5054C35.9675 26.5054 36.0206 26.5002 36.0739 26.489C36.1263 26.4777 36.1779 26.4612 36.227 26.4394C36.2762 26.4176 36.3236 26.3907 36.3687 26.3593C36.4129 26.3272 36.4546 26.2915 36.4931 26.2507C36.5308 26.2106 36.5644 26.1663 36.5946 26.1184C36.6241 26.0715 36.6495 26.0211 36.6699 25.9688C36.6904 25.9158 36.706 25.861 36.7166 25.8062C36.7273 25.7497 36.733 25.6931 36.733 25.6357C36.733 25.5794 36.7273 25.5228 36.7166 25.4662Z" fill="white"/>
</g>
</g>
<g id="Group_17">
<g id="Group_18">
<path id="Vector_9" d="M33.3095 31.8048C33.2997 31.749 33.2833 31.6943 33.2628 31.6412C33.2423 31.589 33.2169 31.5386 33.1875 31.4916C33.158 31.4437 33.1236 31.3994 33.086 31.3594C33.0483 31.3194 33.0066 31.2828 32.9616 31.2516C32.9173 31.2203 32.8699 31.1933 32.8199 31.1715C32.7708 31.1498 32.7192 31.1324 32.6668 31.1219C32.5612 31.0993 32.4522 31.0993 32.3466 31.1219C32.295 31.1324 32.2435 31.1498 32.1935 31.1715C32.1444 31.1933 32.0969 31.2203 32.0527 31.2516C32.0076 31.2829 31.9659 31.3195 31.9282 31.3594C31.8905 31.3994 31.8561 31.4438 31.8259 31.4916C31.7964 31.5386 31.771 31.589 31.7506 31.6412C31.7301 31.6943 31.7146 31.749 31.7039 31.8048C31.6933 31.8605 31.6884 31.9178 31.6884 31.9743C31.6884 32.0308 31.6933 32.0883 31.7039 32.1439C31.7146 32.1996 31.7301 32.2544 31.7506 32.3065C31.7711 32.3596 31.7965 32.41 31.8259 32.457C31.8562 32.5048 31.8906 32.5491 31.9282 32.5891C31.9659 32.6292 32.0076 32.6657 32.0527 32.6969C32.0969 32.7282 32.1444 32.7552 32.1935 32.777C32.2435 32.7988 32.295 32.8162 32.3466 32.8266C32.3999 32.8379 32.4539 32.8439 32.5071 32.8439C32.5604 32.8439 32.6144 32.8379 32.6668 32.8266C32.7192 32.8162 32.7708 32.7988 32.8199 32.777C32.8699 32.7552 32.9173 32.7282 32.9616 32.6969C33.0066 32.6656 33.0483 32.6291 33.086 32.5891C33.1237 32.5491 33.1581 32.5048 33.1875 32.457C33.217 32.41 33.2424 32.3596 33.2628 32.3065C33.2833 32.2543 33.2988 32.1996 33.3095 32.1439C33.3201 32.0882 33.3259 32.0308 33.3259 31.9743C33.3259 31.9178 33.3201 31.8604 33.3095 31.8048Z" fill="white"/>
</g>
</g>
</g>
</svg>
